# xmcd
#
# Track frame offsets:
#	150
#	22746
#	40036
#	59404
#	73731
#	93113
#	107215
#	125050
#	135954
#	151257
#	167463
#	185846
#	206622
#	225674
#	242782
#	259014
#	282417
#	307543
#
# Disc length: 4115 seconds
#
# Revision: 1
# Processed by: cddbd v1.5.2PL0 Copyright (c) Steve Scherf et al.
# Submitted via: audiograbber 1.83.01
#
DISCID=ec101112
DTITLE=Chartbusters - Country 500 Vol.1 d.29 8532-29
DYEAR=1900
DGENRE=karaoke
TTITLE0=Montgomery Gentry - Hell yeah
TTITLE1=Gretchen Wilson - Redneck Woman
TTITLE2=Josh Turner - Long black train
TTITLE3=Amy Dalley - Men don't change
TTITLE4=Mark Wills - And the Crowd Goes Wild
TTITLE5=Billy Dean - Thank God I'm a Country Boy
TTITLE6=Rachel Proctor - Me and Emily
TTITLE7=Tracy Bird - Drinkin Bone
TTITLE8=David Lee Murphy - Loco
TTITLE9=Gretchen Wilson - Here for the party
TTITLE10=Joe Nichols - If Nobody Believed in You
TTITLE11=John Michael Montgomery - Letters from Home
TTITLE12=Julie Roberts - Break Down Here
TTITLE13=Kenny Chesney and Uncle Cracker - When the Sun Goes Down
TTITLE14=Shenia Twain and Billy Currington - Party for two
TTITLE15=Tim McGraw - Live Like You Were Dying
TTITLE16=Travis Tritt - The Girls Gone Wild
TTITLE17=Data - Track
EXTD=
EXTT0=
EXTT1=
EXTT2=
EXTT3=
EXTT4=
EXTT5=
EXTT6=
EXTT7=
EXTT8=
EXTT9=
EXTT10=
EXTT11=
EXTT12=
EXTT13=
EXTT14=
EXTT15=
EXTT16=
EXTT17=
PLAYORDER=
